<?xml version="1.0" encoding="utf-8"?>
<svg xmlns="http://www.w3.org/2000/svg" viewBox="6 6 908 468" width="908px" height="468px"><g id="svg_g_bezier_cells" transform="matrix(0.9999999999999999, 0, 0, 0.9999999999999999, -5.684341886080802e-14, 0)"><path d="M544.546628114172,21.21030826484888 C566.607837424254,36.42061652969776 566.607837424254,36.42061652969776 587.0380913244787,29.980123850270484 C607.4683452247035,23.539631170843208 607.4683452247035,23.539631170843208 607.9173234520144,14.769815585421606 C608.3663016793255,6.0000000000000036 608.3663016793255,6.0000000000000036 565.4258602417078,6.0000000000000036 C522.48541880409,6.000000000000003 522.48541880409,6.000000000000003 544.546628114172,21.21030826484888 Z" style="fill: rgb(34, 62, 98);"/><path d="M177.60725983384253,14.264952659255014 C177.68044996665728,22.52990531851003 177.68044996665728,22.52990531851003 219.99231294449584,38.129083522288845 C262.30417592233437,53.72826172606766 262.30417592233437,53.72826172606766 274.3063058780484,29.86413086303383 C286.3084358337624,6 286.3084358337624,6 231.9212527673951,6 C177.53406970102776,6.000000000000001 177.53406970102776,6.000000000000001 177.60725983384253,14.264952659255014 Z" style="fill: rgb(34, 62, 98);"/><path d="M38.45292329618999,24.70553881150725 C54.703502017158065,43.4110776230145 54.703502017158065,43.4110776230145 96.39442538832328,53.17920032600455 C138.0853487594885,62.94732302899459 138.0853487594885,62.94732302899459 151.89274227703646,43.876685361076014 C165.70013579458444,24.806047693157442 165.70013579458444,24.806047693157442 165.6168674937768,15.403023846578721 C165.53359919296918,5.999999999999999 165.53359919296918,5.999999999999999 93.86797188409554,6 C22.202344575221904,6 22.202344575221904,6 38.45292329618999,24.70553881150725 Z" style="fill: rgb(34, 62, 98);"/><path d="M638.1990571246072,43.38742164740992 C657.0172348555803,61.219782746922284 657.0172348555803,61.219782746922284 661.9311956710653,57.6419470798922 C666.8451564865503,54.06411141286211 666.8451564865503,54.06411141286211 675.0139113345483,30.03205570643105 C683.1826661825462,5.9999999999999885 683.1826661825462,5.9999999999999885 651.7823418328001,5.9999999999999885 C620.3820174830538,5.9999999999999885 620.3820174830538,5.9999999999999885 619.8814484383439,15.777530273948772 C619.380879393634,25.555060547897554 619.380879393634,25.555060547897554 638.1990571246072,43.38742164740992 Z" style="fill: rgb(34, 62, 98);"/><path d="M795.4638888922532,18.215685552154635 C796.2935527446979,30.431371104309264 796.2935527446979,30.431371104309264 837.1462120812446,56.78730735504653 C877.9988714177912,83.1432436057838 877.9988714177912,83.1432436057838 895.9994357088956,76.10671908705314 C914.0000000000001,69.07019456832249 914.0000000000001,69.07019456832249 914,37.53509728416125 C914,6.000000000000007 914,6.000000000000007 854.3171125199042,6.000000000000007 C794.6342250398085,6.000000000000008 794.6342250398085,6.000000000000008 795.4638888922532,18.215685552154635 Z" style="fill: rgb(13, 110, 253);"/><path d="M719.752413697362,59.77353000209661 C759.6408994980662,66.49639074330787 759.6408994980662,66.49639074330787 772.0098134471805,49.294441383445275 C784.3787273962947,32.09249202358267 784.3787273962947,32.09249202358267 783.4926536119074,19.04624601179134 C782.60657982752,6.000000000000005 782.60657982752,6.000000000000005 739.2317687528969,6.000000000000005 C695.8569576782737,6.000000000000006 695.8569576782737,6.000000000000006 687.8604427874659,29.52533463044267 C679.863927896658,53.050669260885336 679.863927896658,53.050669260885336 719.752413697362,59.77353000209661 Z" style="fill: rgb(34, 62, 98);"/><path d="M378.50272326968195,38.58386139428567 C381.49123407714217,71.16772278857134 381.49123407714217,71.16772278857134 392.7767396391112,86.70862930792319 C404.06224520108026,102.24953582727503 404.06224520108026,102.24953582727503 439.50101403818746,75.9249847876164 C474.9397828752947,49.60043374795776 474.9397828752947,49.60043374795776 479.8836243613267,27.80021687397888 C484.82746584735867,6.000000000000002 484.82746584735867,6.000000000000002 430.1708391547902,6.000000000000002 C375.5142124622217,6.000000000000002 375.5142124622217,6.000000000000002 378.50272326968195,38.58386139428567 Z" style="fill: rgb(13, 110, 253);"/><path d="M274.2584841177734,71.39800711406971 C276.86586857433366,80.94489515076918 276.86586857433366,80.94489515076918 323.01722105916826,74.57189447440238 C369.16857354400287,68.19889379803558 369.16857354400287,68.19889379803558 366.31620954579205,37.09944689901779 C363.46384554758123,5.999999999999996 363.46384554758123,5.999999999999996 331.60224115653875,5.9999999999999964 C299.7406367654962,5.999999999999998 299.7406367654962,5.999999999999998 285.6958682133547,33.92555953868512 C271.65109966121315,61.85111907737024 271.65109966121315,61.85111907737024 274.2584841177734,71.39800711406971 Z" style="fill: rgb(34, 62, 98);"/><path d="M575.1972864033062,81.62725298843648 C578.3602956308612,115.96238822359213 578.3602956308612,115.96238822359213 593.6313780160294,121.05646878423724 C608.9024604011978,126.15054934488236 608.9024604011978,126.15054934488236 624.7318820388432,115.02463569263132 C640.5613036764886,103.89872204038028 640.5613036764886,103.89872204038028 645.1625217824604,87.38851041578471 C649.7637398884323,70.87829879118914 649.7637398884323,70.87829879118914 630.7236340869836,52.835635634409755 C611.6835282855349,34.79297247763038 611.6835282855349,34.79297247763038 591.8589027306431,41.04254511545561 C572.0342771757513,47.29211775328084 572.0342771757513,47.29211775328084 575.1972864033062,81.62725298843648 Z" style="fill: rgb(34, 62, 98);"/><path d="M509.8956060558308,86.92568373019883 C533.0725121799613,121.93243476898112 533.0725121799613,121.93243476898112 549.6719615145673,118.74076101056843 C566.2714108491733,115.54908725215576 566.2714108491733,115.54908725215576 563.084990360572,80.95981781876515 C559.8985698719707,46.37054838537452 559.8985698719707,46.37054838537452 530.6216116938522,26.185274192687245 C497.1321708501985,5.99999999999997 497.1321708501985,5.99999999999997 491.92543539094936,28.959466345708254 C486.71869993170026,51.918932691416536 486.71869993170026,51.918932691416536 509.8956060558308,86.92568373019883 Z" style="fill: rgb(13, 110, 253);"/><path d="M151.2155338688208,92.26201191509149 C155.43108737696244,113.42717527950875 155.43108737696244,113.42717527950875 183.8652382319483,127.06965677959019 C212.29938908693413,140.71213827967165 212.29938908693413,140.71213827967165 239.06499761739383,113.39930711152452 C265.83060614785353,86.0864759433774 265.83060614785353,86.0864759433774 263.0565946366935,75.92948615120162 C260.2825831255335,65.77249635902582 260.2825831255335,65.77249635902582 217.09617868023554,49.850899636245884 C173.9097742349376,33.92930291346595 173.9097742349376,33.92930291346595 160.4548772978084,52.51307573207009 C146.9999803606792,71.09684855067424 146.9999803606792,71.09684855067424 151.2155338688208,92.26201191509149 Z" style="fill: rgb(13, 110, 253);"/><path d="M689.2639448143107,123.85984868491147 C725.6869801613207,143.18339374494883 725.6869801613207,143.18339374494883 739.3309034496357,132.91370672428488 C752.9748267379507,122.64401970362094 752.9748267379507,122.64401970362094 754.4767298712811,100.34620534502321 C755.9786330046114,78.04839098642546 755.9786330046114,78.04839098642546 714.6920284119653,71.08988936416246 C673.4054238193191,64.13138774189946 673.4054238193191,64.13138774189946 667.5691134839813,68.3807824899865 C661.7328031486435,72.63017723807356 661.7328031486435,72.63017723807356 657.2868563079721,88.58324043147384 C652.8409094673008,104.53630362487412 652.8409094673008,104.53630362487412 689.2639448143107,123.85984868491147 Z" style="fill: rgb(13, 110, 253);"/><path d="M19.637010185999,138.72468655561397 C33.274020371998,131.13535134188507 33.274020371998,131.13535134188507 39.191492909850055,90.89991905229698 C45.108965447702104,50.6644867627089 45.108965447702104,50.6644867627089 25.707659623714658,28.332243381354452 C6,6.000000000000005 6,6.000000000000005 6,76.15701088467142 C6,146.31402176934284 6,146.31402176934284 19.637010185999,138.72468655561397 Z" style="fill: rgb(34, 62, 98);"/><path d="M795.5132098991442,136.18457228183453 C825.986068446249,150.29424597167102 825.986068446249,150.29424597167102 836.0346220395977,145.82485409603055 C846.0831756329464,141.35546222039008 846.0831756329464,141.35546222039008 857.8593539076929,116.69185111744534 C869.6355321824394,92.02824001450061 869.6355321824394,92.02824001450061 830.8439389140738,67.00199262083481 C792.0523456457082,41.97574522716901 792.0523456457082,41.97574522716901 780.1268196819767,58.56105696608084 C768.2012937182453,75.14636870499267 768.2012937182453,75.14636870499267 766.6208225351425,98.61063364849535 C765.0403513520395,122.07489859199804 765.0403513520395,122.07489859199804 795.5132098991442,136.18457228183453 Z" style="fill: rgb(34, 62, 98);"/><path d="M305.9693365027807,120.54443171912428 C328.5369509908269,148.93262729436466 328.5369509908269,148.93262729436466 332.9472508592777,149.49612119522737 C337.3575507277285,150.0596150960901 337.3575507277285,150.0596150960901 366.3714452856284,130.39137130111632 C395.38533984352836,110.72312750614253 395.38533984352836,110.72312750614253 384.155277881928,95.25857058457295 C372.92521592032756,79.79401366300337 372.92521592032756,79.79401366300337 328.16346896753106,85.97512490344363 C283.40172201473456,92.15623614388387 283.40172201473456,92.15623614388387 305.9693365027807,120.54443171912428 Z" style="fill: rgb(34, 62, 98);"/><path d="M75.33063497291704,143.0390593893348 C105.25576578456044,154.95907578608643 105.25576578456044,154.95907578608643 124.44321946689007,135.28587003397206 C143.63067314921972,115.61266428185769 143.63067314921972,115.61266428185769 139.55236435398157,95.13656980575948 C135.47405555874343,74.66047532966125 135.47405555874343,74.66047532966125 95.95332169390264,65.40082487128407 C56.43258782906185,56.14117441290688 56.43258782906185,56.14117441290688 50.91904599516775,93.63010870274502 C45.405504161273655,131.11904299258316 45.405504161273655,131.11904299258316 75.33063497291704,143.0390593893348 Z" style="fill: rgb(13, 110, 253);"/><path d="M429.572624387451,139.07903914595204 C449.14078434288217,165.37408141375863 449.14078434288217,165.37408141375863 473.2937066267359,162.7217647625393 C497.4466289105897,160.06944811131996 497.4466289105897,160.06944811131996 510.1547223670075,144.15920608430073 C522.8628158234253,128.2489640572815 522.8628158234253,128.2489640572815 500.82821814105637,94.96757303920609 C478.79362045868737,61.68618202113065 478.79362045868737,61.68618202113065 444.39904244535364,87.23508944963805 C410.0044644320199,112.78399687814546 410.0044644320199,112.78399687814546 429.572624387451,139.07903914595204 Z" style="fill: rgb(34, 62, 98);"/><path d="M885.9340190953988,170.34929597878133 C913.9999999999998,196.1746812575152 913.9999999999998,196.1746812575152 913.9999999999998,139.0645698327515 C913.9999999999999,81.95445840798777 913.9999999999999,81.95445840798777 897.8589166285649,88.26410109836203 C881.7178332571298,94.57374378873631 881.7178332571298,94.57374378873631 869.7929357239639,119.54882724439187 C857.8680381907978,144.52391070004745 857.8680381907978,144.52391070004745 885.9340190953988,170.34929597878133 Z" style="fill: rgb(34, 62, 98);"/><path d="M222.00740465515582,155.60770589633427 C223.7064649985059,161.53104979346844 223.7064649985059,161.53104979346844 249.71175565694293,174.999396299461 C275.71704631537995,188.46774280545358 275.71704631537995,188.46774280545358 296.3725707371487,171.10341674644894 C317.02809515891744,153.73909068744433 317.02809515891744,153.73909068744433 294.47858478847274,125.37366859725526 C271.929074418028,97.0082465070662 271.929074418028,97.0082465070662 246.11870936491687,123.34630425313313 C220.30834431180577,149.68436199920006 220.30834431180577,149.68436199920006 222.00740465515582,155.60770589633427 Z" style="fill: rgb(34, 62, 98);"/><path d="M619.567852944934,162.88149868741573 C622.8711418585438,190.11940262549646 622.8711418585438,190.11940262549646 634.6207416800489,199.3324188373627 C646.370341501554,208.54543504922896 646.370341501554,208.54543504922896 680.0710495443841,202.22243766982746 C713.7717575872143,195.89944029042593 713.7717575872143,195.89944029042593 716.7454134057414,174.75043989166693 C719.7190692242684,153.60143949290793 719.7190692242684,153.60143949290793 682.9618792333565,134.10061507498773 C646.2046892424446,114.5997906570675 646.2046892424446,114.5997906570675 631.2346266368843,125.12169270320125 C616.2645640313241,135.643594749335 616.2645640313241,135.643594749335 619.567852944934,162.88149868741573 Z" style="fill: rgb(34, 62, 98);"/><path d="M359.0058764619838,195.04502237983246 C371.9556431848898,231.42975160563498 371.9556431848898,231.42975160563498 398.1726309714321,219.74868613423723 C424.38961875797446,208.0676206628395 424.38961875797446,208.0676206628395 431.94980785604673,190.3002356907346 C439.509996954119,172.53285071862976 439.509996954119,172.53285071862976 420.41079966541895,146.8679848788471 C401.31160237671884,121.20311903906445 401.31160237671884,121.20311903906445 373.6838560578983,139.9317060965472 C346.0561097390777,158.66029315402994 346.0561097390777,158.66029315402994 359.0058764619838,195.04502237983246 Z" style="fill: rgb(34, 62, 98);"/><path d="M526.3881379004915,197.9295716712801 C544.9358660298499,229.57456616080256 549.1830306387509,230.22226326234323 579.9946571057737,210.2659305276813 C610.8062835727967,190.30959779301938 610.8062835727967,190.30959779301938 607.5913442498268,163.8001973936095 C604.3764049268567,137.29079699419964 604.3764049268567,137.29079699419964 588.3561667518886,131.9468153558536 C572.3359285769207,126.60283371750755 572.3359285769207,126.60283371750755 552.9601042883537,130.32833741843513 C533.5842799997866,134.0538411193627 533.5842799997866,134.0538411193627 520.71234488546,150.16920915056014 C507.84040977113324,166.28457718175758 507.84040977113324,166.28457718175758 526.3881379004915,197.9295716712801 Z" style="fill: rgb(34, 62, 98);"/><path d="M739.2485862176135,217.38350147971522 C753.091890827231,235.42163981699838 753.091890827231,235.42163981699838 779.904107678179,220.3526768802438 C806.716324529127,205.28371394348923 806.716324529127,205.28371394348923 812.7734774123636,182.74437507519193 C818.8306302956003,160.20503620689462 818.8306302956003,160.20503620689462 789.1729099000124,146.47279128083034 C759.5151895044247,132.74054635476602 759.5151895044247,132.74054635476602 745.6783334753266,143.15545251966103 C731.8414774462284,153.57035868455603 731.8414774462284,153.57035868455603 728.6233795271121,176.45786091349405 C725.4052816079959,199.34536314243206 725.4052816079959,199.34536314243206 739.2485862176135,217.38350147971522 Z" style="fill: rgb(34, 62, 98);"/><path d="M34.863578702548146,209.98699207833573 C63.72715740509629,235.42712932441898 63.72715740509629,235.42712932441898 82.13840633244173,213.68774073343803 C100.54965525978717,191.9483521424571 100.54965525978717,191.9483521424571 100.6385030948527,179.01029544380225 C100.72735092991822,166.07223874514742 100.72735092991822,166.07223874514742 69.96701703927613,153.81953760730156 C39.206683148634035,141.5668364694557 39.206683148634035,141.5668364694557 22.603341574317017,150.80700885012197 C6.000000000000001,160.04718123078828 6.000000000000001,160.04718123078828 6.000000000000001,172.29701803152037 C6.000000000000001,184.54685483225245 6.000000000000001,184.54685483225245 34.863578702548146,209.98699207833573 Z" style="fill: rgb(34, 62, 98);"/><path d="M144.36271804449,209.1164286634085 C176.16705253657375,227.51432005526397 176.16705253657375,227.51432005526397 180.078084650086,226.45650667154962 C183.98911676359822,225.39869328783527 183.98911676359822,225.39869328783527 198.12623899806002,195.27912689241418 C212.26336123252182,165.15956049699307 212.26336123252182,165.15956049699307 210.40818953234196,158.6919738621772 C208.5530178321621,152.22438722736135 208.5530178321621,152.22438722736135 179.98665709738086,138.51847246885643 C151.4202963625996,124.81255771035148 151.4202963625996,124.81255771035148 132.079454482848,144.64303485541808 C112.73861260309644,164.47351200048467 112.73861260309644,164.47351200048467 112.64849807775134,177.59602463601885 C112.55838355240624,190.71853727155306 112.55838355240624,190.71853727155306 144.36271804449,209.1164286634085 Z" style="fill: rgb(34, 62, 98);"/><path d="M289.96289257310053,223.3697477518652 C296.6486161580113,248.95031514727506 296.6486161580113,248.95031514727506 328.8605627859496,242.79496172638954 C361.07250941388793,236.63960830550403 361.07250941388793,236.63960830550403 347.7513472107164,199.2113758047547 C334.4301850075448,161.7831433040054 334.4301850075448,161.7831433040054 330.8179536322689,161.32161678445195 C327.20572225699294,160.8600902648985 327.20572225699294,160.8600902648985 305.24144562259136,179.3246353106769 C283.27716898818977,197.7891803564553 283.27716898818977,197.7891803564553 289.96289257310053,223.3697477518652 Z" style="fill: rgb(13, 110, 253);"/><path d="M843.8488965832062,227.6706984846602 C869.0403611800648,248.25422174089638 869.0403611800648,248.25422174089638 891.5201805900324,242.17289676083402 C914,236.09157178077163 914,236.09157178077163 913.9999999999998,224.2867424798646 C913.9999999999995,212.4819131789576 913.9999999999995,212.4819131789576 881.6906649121285,182.75193404228673 C849.3813298242574,153.02195490561584 849.3813298242574,153.02195490561584 840.1847913397197,157.11238782264917 C830.988252855182,161.20282073968247 830.988252855182,161.20282073968247 824.8228424207648,184.14499798405322 C818.6574319863475,207.08717522842397 818.6574319863475,207.08717522842397 843.8488965832062,227.6706984846602 Z" style="fill: rgb(13, 110, 253);"/><path d="M219.78791473996475,250.1325910190906 C243.98687912767946,271.3377831353716 243.98687912767946,271.3377831353716 261.04605279144596,268.05601558855085 C278.10522645521246,264.7742480417301 278.10522645521246,264.7742480417301 281.91540532523027,259.6937283459372 C285.7255841952481,254.61320865014423 285.7255841952481,254.61320865014423 278.55438652443166,227.17514559020168 C271.38318885361525,199.73708253025913 271.38318885361525,199.73708253025913 246.4077898186491,186.80212507308403 C221.43239078368293,173.86716761590893 221.43239078368293,173.86716761590893 208.51067056796649,201.39728325935926 C195.58895035225004,228.9273989028096 195.58895035225004,228.9273989028096 219.78791473996475,250.1325910190906 Z" style="fill: rgb(34, 62, 98);"/><path d="M458.93706160663135,244.2461019133014 C482.049440399786,276.65000991526824 482.049440399786,276.65000991526824 507.7545036066071,255.1878203767409 C533.4595668134282,233.72563083821356 533.4595668134282,233.72563083821356 515.4142799634034,202.9378707983729 C497.36899311337856,172.15011075853224 497.36899311337856,172.15011075853224 473.9470872913875,174.72215194199134 C450.52518146939644,177.29419312545048 450.52518146939644,177.29419312545048 443.17493214143656,194.56819351839252 C435.8246828134767,211.84219391133456 435.8246828134767,211.84219391133456 458.93706160663135,244.2461019133014 Z" style="fill: rgb(13, 110, 253);"/><path d="M31.509617998558586,279.70036385917865 C57.01923599711717,271.8228824754898 57.01923599711717,271.8228824754898 57.61990049250664,259.19618947229037 C58.220564987896104,246.56949646909098 58.220564987896104,246.56949646909098 32.11028249394805,223.55609341795088 C6,200.5426903668108 6,200.5426903668108 6,244.06026780483919 C6,287.57784524286757 6,287.57784524286757 31.509617998558586,279.70036385917865 Z" style="fill: rgb(34, 62, 98);"/><path d="M71.71710002651275,276.5744325118525 C74.49953143407626,279.2630094010806 74.49953143407626,279.2630094010806 107.66572388155372,278.8972908805114 C140.83191632903117,278.5315723599422 140.83191632903117,278.5315723599422 153.9064603243201,257.2975825171352 C166.98100431960907,236.06359267432825 166.98100431960907,236.06359267432825 137.4263648450384,218.9670850484908 C107.87172537046771,201.87057742265333 107.87172537046771,201.87057742265333 89.05942486229185,224.0835143424361 C70.247124354116,246.2964512622189 70.247124354116,246.2964512622189 69.59089648653261,260.09115344242167 C68.93466861894925,273.88585562262443 68.93466861894925,273.88585562262443 71.71710002651275,276.5744325118525 Z" style="fill: rgb(13, 110, 253);"/><path d="M651.3989168670635,244.73321100784767 C651.8919050022101,269.562577799591 651.8919050022101,269.562577799591 680.6287398249733,281.4369811469155 C709.3655746477365,293.3113844942401 709.3655746477365,293.3113844942401 712.980181756386,291.75872000639595 C716.5947888650355,290.20605551855186 716.5947888650355,290.20605551855186 730.9234071232879,267.56119930846813 C745.2520253815402,244.91634309838437 745.2520253815402,244.91634309838437 730.9246970484949,226.24751092549434 C716.5973687154496,207.57867875260433 716.5973687154496,207.57867875260433 683.7516487236833,213.74126148435437 C650.9059287319169,219.90384421610437 650.9059287319169,219.90384421610437 651.3989168670635,244.73321100784767 Z" style="fill: rgb(34, 62, 98);"/><path d="M579.4717176911453,270.19253789959646 C600.1171366463559,302.11151148317794 600.1171366463559,302.11151148317794 620.0150606029918,286.4274402685075 C639.9129845596275,270.74336905383706 639.9129845596275,270.74336905383706 639.3884673211325,244.32603773345488 C638.8639500826374,217.9087064130727 638.8639500826374,217.9087064130727 627.8726926207066,209.29031644882696 C616.8814351587758,200.67192648458123 616.8814351587758,200.67192648458123 587.8538669473553,219.4727454002981 C558.8262987359346,238.27356431601498 558.8262987359346,238.27356431601498 579.4717176911453,270.19253789959646 Z" style="fill: rgb(13, 110, 253);"/><path d="M794.4505911451573,272.12190203356784 C829.0877596752086,298.8344514911854 829.0877596752086,298.8344514911854 844.2916389985818,277.393064448894 C859.4955183219549,255.9516774066026 859.4955183219549,255.9516774066026 835.3618712916107,236.23247914415504 C811.2282242612665,216.51328088170746 811.2282242612665,216.51328088170746 785.5208234381862,230.96131672882888 C759.813422615106,245.4093525759503 759.813422615106,245.4093525759503 794.4505911451573,272.12190203356784 Z" style="fill: rgb(34, 62, 98);"/><path d="M384.40343888539985,276.41489629241187 C394.76624355268854,309.1917953931614 394.76624355268854,309.1917953931614 432.1092346802784,311.604426728193 C469.45222580786833,314.0170580632246 469.45222580786833,314.0170580632246 472.0043408643477,300.41352672752834 C474.55645592082703,286.80999539183205 474.55645592082703,286.80999539183205 450.7529674417467,253.4371410567151 C426.9494789626664,220.06428672159814 426.9494789626664,220.06428672159814 400.4950565903888,231.85114195663024 C374.0406342181112,243.63799719166235 374.0406342181112,243.63799719166235 384.40343888539985,276.41489629241187 Z" style="fill: rgb(34, 62, 98);"/><path d="M171.85593727013577,315.89067447044124 C192.40199937725595,347.37971296159577 192.40199937725595,347.37971296159577 213.43810297930685,313.1685303711058 C234.47420658135772,278.9573477806158 234.47420658135772,278.9573477806158 210.58847063076186,258.0266330791104 C186.702734680166,237.095918377605 186.702734680166,237.095918377605 182.94431659559203,238.11245438039577 C179.18589851101805,239.12899038318653 179.18589851101805,239.12899038318653 165.24788683701684,261.7653131812366 C151.30987516301562,284.40163597928665 151.30987516301562,284.40163597928665 171.85593727013577,315.89067447044124 Z" style="fill: rgb(34, 62, 98);"/><path d="M482.7945378637488,323.03463206989466 C484.91766530345006,326.7743213548345 484.91766530345006,326.7743213548345 500.3979855046995,331.36595327222005 C515.878305705949,335.95758518960565 515.878305705949,335.95758518960565 553.4150397247915,322.99710889279385 C590.9517737436341,310.03663259598204 590.9517737436341,310.03663259598204 568.955563510893,276.0292600703413 C542.974386737119,241.4141759262353 542.974386737119,241.4141759262353 514.6993676389736,265.0221248430402 C486.4243485408284,288.6300737598451 486.4243485408284,288.6300737598451 483.54787948243796,303.9625082724 C480.6714104240475,319.29494278495486 480.6714104240475,319.29494278495486 482.7945378637488,323.03463206989466 Z" style="fill: rgb(34, 62, 98);"/><path d="M308.15327829813,316.0492828354001 C327.8906566993251,361.07193466076956 327.8906566993251,361.07193466076956 333.90087664524447,361.8506114000856 C339.91109659116387,362.62928813940164 339.91109659116387,362.62928813940164 361.7234553337884,338.0534920292365 C383.535814076413,313.47769591907144 383.535814076413,313.47769591907144 373.262570712604,280.98407358573536 C362.98932734879503,248.49045125239925 362.98932734879503,248.49045125239925 329.3294527167771,254.92248800124543 C295.66957808475917,261.3545247500916 295.66957808475917,261.3545247500916 292.04273899084706,266.19057788006114 C288.4158998969349,271.02663101003066 288.4158998969349,271.02663101003066 308.15327829813,316.0492828354001 Z" style="fill: rgb(34, 62, 98);"/><path d="M856.764319458613,324.1078442031271 C874.2854748409786,342.9571057308284 874.2854748409786,342.9571057308284 894.1427374204893,332.27323493919187 C914,321.58936414755533 914,321.58936414755533 914.0000000000001,285.0561410184741 C914.0000000000002,248.52291788939286 914.0000000000002,248.52291788939286 892.6394286137884,254.30145970017696 C871.2788572275766,260.0800015109611 871.2788572275766,260.0800015109611 855.2610106519121,282.66929209319346 C839.2431640762475,305.2585826754258 839.2431640762475,305.2585826754258 856.764319458613,324.1078442031271 Z" style="fill: rgb(34, 62, 98);"/><path d="M753.0335423311753,320.28888266986036 C777.8236291918639,346.33880111554237 777.8236291918639,346.33880111554237 798.6205149200009,326.43472687443375 C819.4174006481379,306.53065263332513 819.4174006481379,306.53065263332513 786.1672450384795,280.8877821594906 C752.9170894288211,255.244911685656 752.9170894288211,255.244911685656 740.5802724496539,274.74193795491715 C728.2434554704868,294.23896422417835 728.2434554704868,294.23896422417835 753.0335423311753,320.28888266986036 Z" style="fill: rgb(13, 110, 253);"/><path d="M618.2701365210869,340.1454891827108 C631.9050723464686,366.4610863693191 631.9050723464686,366.4610863693191 651.1489924413198,369.4661255099629 C670.392912536171,372.4711646506068 670.392912536171,372.4711646506068 685.9042296296539,337.7408070870956 C701.4155467231368,303.01044952358444 701.4155467231368,303.01044952358444 674.1709584199999,291.7526602597862 C646.926370116863,280.4948709959879 646.926370116863,280.4948709959879 625.780785406284,297.1623814960452 C604.6352006957051,313.8298919961025 604.6352006957051,313.8298919961025 618.2701365210869,340.1454891827108 Z" style="fill: rgb(34, 62, 98);"/><path d="M84.0555287756254,318.62669661310434 C88.87577834288774,346.0418746640465 88.87577834288774,346.0418746640465 137.30322900789025,361.8916163608492 C185.73067967289276,377.74135805765195 185.73067967289276,377.74135805765195 186.10326844294667,368.99928614124667 C186.47585721300055,360.25721422484145 186.47585721300055,360.25721422484145 163.72816303463782,325.393939022376 C140.9804688562751,290.53066381991056 140.9804688562751,290.53066381991056 110.10787403231909,290.8710911910364 C79.23527920836307,291.2115185621622 79.23527920836307,291.2115185621622 84.0555287756254,318.62669661310434 Z" style="fill: rgb(34, 62, 98);"/><path d="M227.0824360568521,389.75549824717245 C256.68525710771445,395.6232884791441 256.68525710771445,395.6232884791441 286.3590395289999,379.76716044950706 C316.0328219502853,363.91103241987 316.0328219502853,363.91103241987 296.9880333477089,320.46823728707545 C277.9432447451324,277.02544215428094 277.9432447451324,277.02544215428094 261.95495228742584,280.1011983632834 C245.96665982971925,283.17695457228587 245.96665982971925,283.17695457228587 222.22357559640926,321.7905212923109 C198.48049136309925,360.40408801233593 198.48049136309925,360.40408801233593 197.9800531845445,372.1458980137684 C197.47961500598976,383.8877080152009 197.47961500598976,383.8877080152009 227.0824360568521,389.75549824717245 Z" style="fill: rgb(13, 110, 253);"/><path d="M21.805458146551565,392.42236586579577 C37.61091629310313,395.39415042086796 37.61091629310313,395.39415042086796 57.401259853471814,372.13959796639625 C77.1916034138405,348.88504551192455 77.1916034138405,348.88504551192455 71.86100734603434,318.56727082467785 C66.53041127822817,288.2494961374312 66.53041127822817,288.2494961374312 63.862105121386946,285.6711949267824 C61.193798964545714,283.0928937161336 61.193798964545714,283.0928937161336 33.59689948227285,291.6149367326704 C5.999999999999998,300.1369797492072 5.999999999999998,300.1369797492072 5.999999999999997,344.7937805299654 C5.9999999999999964,389.4505813107236 5.9999999999999964,389.4505813107236 21.805458146551565,392.42236586579577 Z" style="fill: rgb(34, 62, 98);"/><path d="M725.9312265514432,375.7127394630659 C770.0182038389165,375.16787462469586 770.0182038389165,375.16787462469586 770.7266591949203,366.10031178340125 C771.4351145509241,357.0327489421066 771.4351145509241,357.0327489421066 745.3189714512187,329.5893841130014 C713.9330718104627,304.40965779146586 713.9330718104627,304.40965779146586 697.8886605372163,340.3336310464509 C681.8442492639699,376.2576043014359 681.8442492639699,376.2576043014359 725.9312265514432,375.7127394630659 Z" style="fill: rgb(34, 62, 98);"/><path d="M789.3501101133252,393.23767937597506 C797.0024709235995,406.73789601391917 797.0024709235995,406.73789601391917 819.3893339401488,408.7239421108475 C841.7761969566982,410.7099882077757 841.7761969566982,410.7099882077757 852.3243130542928,404.0544390763249 C862.8724291518873,397.39888994487416 862.8724291518873,397.39888994487416 864.8536516051086,374.98306299371217 C866.8348740583299,352.5672360425502 866.8348740583299,352.5672360425502 848.4352383948915,332.772905299748 C830.035602731453,312.9785745569458 830.035602731453,312.9785745569458 806.7320787444514,335.28167693391333 C783.42855475745,357.5847793108809 783.42855475745,357.5847793108809 782.5631520302504,368.66112102445595 C781.6977493030508,379.737462738031 781.6977493030508,379.737462738031 789.3501101133252,393.23767937597506 Z" style="fill: rgb(34, 62, 98);"/><path d="M361.0874660093055,383.21289286106503 C372.0714722279336,397.20257858029663 372.0714722279336,397.20257858029663 411.61519626716677,396.6709650465586 C451.1589203063999,396.13935151282055 451.1589203063999,396.13935151282055 462.7338669861747,364.26644211707287 C474.3088136659494,332.39353272132524 474.3088136659494,332.39353272132524 472.52967356574334,329.2597447796633 C470.75053346553733,326.1259568380014 470.75053346553733,326.1259568380014 431.7868524252252,323.60861703828243 C392.82317138491305,321.0912772385634 392.82317138491305,321.0912772385634 371.46331558779525,345.1572421901984 C350.1034597906774,369.2232071418335 350.1034597906774,369.2232071418335 361.0874660093055,383.21289286106503 Z" style="fill: rgb(13, 110, 253);"/><path d="M542.3448929010254,375.9585513171096 C559.8485107034002,406.35905008208516 559.8485107034002,406.35905008208516 571.7949211470832,409.10485336218994 C583.7413315907661,411.85065664229467 583.7413315907661,411.85065664229467 602.2368913769859,391.416389873355 C620.7324511632057,370.9821231044153 620.7324511632057,370.9821231044153 607.8697121258853,346.1568754055976 C595.0069730885648,321.33162770677995 595.0069730885648,321.33162770677995 559.9241240936078,333.444840129457 C524.8412750986507,345.5580525521341 524.8412750986507,345.5580525521341 542.3448929010254,375.9585513171096 Z" style="fill: rgb(34, 62, 98);"/><path d="M894.4917249007872,403.0764046128678 C914.0000000000002,409.4807441511134 914.0000000000002,409.4807441511134 914.0000000000001,372.348370404347 C914,335.2159966575806 914,335.2159966575806 896.3692055448723,344.70195320160315 C878.7384110897447,354.18790974562575 878.7384110897447,354.18790974562575 876.8609304456593,375.429987410124 C874.983449801574,396.67206507462225 874.983449801574,396.67206507462225 894.4917249007872,403.0764046128678 Z" style="fill: rgb(13, 110, 253);"/><path d="M71.41556445485689,438.1834149107103 C95.39687776630585,473.9999999999998 95.39687776630585,473.9999999999998 117.12139700827873,473.9999999999998 C138.84591625025163,473.99999999999983 138.84591625025163,473.99999999999983 162.0444072948422,432.10403603772 C185.24289833943277,390.2080720754402 185.24289833943277,390.2080720754402 135.3962323915975,373.8938377130901 C85.54956644376223,357.57960335074 85.54956644376223,357.57960335074 66.49190879358508,379.9732165860804 C47.43425114340794,402.3668298214209 47.43425114340794,402.3668298214209 71.41556445485689,438.1834149107103 Z" style="fill: rgb(34, 62, 98);"/><path d="M465.7197006289523,410.30263669443696 C469.57927954181366,418.778041367148 469.57927954181366,418.778041367148 490.2848210329812,425.2061601537393 C510.99036252414874,431.6342789403306 510.99036252414874,431.6342789403306 529.4031689761453,420.5722867996188 C547.8159754281419,409.51029465890696 547.8159754281419,409.51029465890696 529.9146922632667,378.41912579943653 C512.0134090983917,347.3279569399661 512.0134090983917,347.3279569399661 498.30893306595686,343.2630597838663 C484.60445703352207,339.19816262776646 484.60445703352207,339.19816262776646 473.23228937480644,370.5126973247462 C461.8601217160909,401.827232021726 461.8601217160909,401.827232021726 465.7197006289523,410.30263669443696 Z" style="fill: rgb(34, 62, 98);"/><path d="M690.2848736369002,416.44979368354194 C696.2853542599453,444.67122405012975 696.2853542599453,444.67122405012975 734.9039886816577,437.60138680686407 C773.52262310337,430.5315495635984 773.52262310337,430.5315495635984 779.8908626527511,421.32543315962744 C786.2591022021323,412.1193167556565 786.2591022021323,412.1193167556565 779.1804204477437,399.6311788378777 C772.101738693355,387.14304092009894 772.101738693355,387.14304092009894 728.193065853605,387.68570211852654 C684.2843930138552,388.22836331695413 684.2843930138552,388.22836331695413 690.2848736369002,416.44979368354194 Z" style="fill: rgb(34, 62, 98);"/><path d="M600.0744736940173,447.02780656946516 C607.6485722619032,473.99999999999983 607.6485722619032,473.99999999999983 641.645627265845,473.9999999999998 C675.6426822697866,473.9999999999998 675.6426822697866,473.9999999999998 680.5052404713506,462.511899224494 C685.3677986729145,451.02379844898826 685.3677986729145,451.02379844898826 678.3636636042672,418.08198552839366 C670.9688903151847,384.70653218404067 670.9688903151847,384.70653218404067 650.6098432467031,381.5273601127866 C630.2507961782215,378.34818804153247 630.2507961782215,378.34818804153247 611.3755856521765,399.2019005902315 C592.5003751261314,420.05561313893054 592.5003751261314,420.05561313893054 600.0744736940173,447.02780656946516 Z" style="fill: rgb(13, 110, 253);"/><path d="M277.6807532666308,439.38114532410293 C290.31703072082337,474.0000000000003 290.31703072082337,474.0000000000003 325.8728743426217,474.00000000000034 C361.42871796441995,474.0000000000004 361.42871796441995,474.0000000000004 362.2809728129347,439.62508558554083 C363.1332276614494,405.25017117108126 363.1332276614494,405.25017117108126 351.10963933459254,389.9364305775187 C339.08605100773565,374.62268998395615 339.08605100773565,374.62268998395615 331.98839000336807,373.7031257122021 C324.89072899900043,372.783561440448 324.89072899900043,372.783561440448 294.96760240571933,388.7729260443268 C265.04447581243824,404.76229064820564 265.04447581243824,404.76229064820564 277.6807532666308,439.38114532410293 Z" style="fill: rgb(34, 62, 98);"/><path d="M448.6143486580073,448.9284401157015 C458.70642989744493,423.8568802314027 458.70642989744493,423.8568802314027 455.1267191730807,415.9960493777754 C451.54700844871644,408.1352185241482 451.54700844871644,408.1352185241482 413.2934472163262,408.6494875101606 C375.03988598393596,409.16375649617305 375.03988598393596,409.16375649617305 374.236145759024,441.5818782480867 C373.432405534112,474.0000000000003 373.432405534112,474.0000000000003 405.97733647634084,474.0000000000002 C438.5222674185697,474.0000000000002 438.5222674185697,474.0000000000002 448.6143486580073,448.9284401157015 Z" style="fill: rgb(34, 62, 98);"/><path d="M58.6474923892292,440.68269283435404 C36.33959285494137,407.36538566870803 36.33959285494137,407.36538566870803 21.169796427470686,404.5131199318504 C6.000000000000003,401.66085419499274 6.000000000000003,401.66085419499274 6.000000000000002,437.83042709749645 C6.000000000000002,474.0000000000001 6.000000000000002,474.0000000000001 43.47769596175851,474.00000000000006 C80.95539192351703,474 80.95539192351703,474 58.6474923892292,440.68269283435404 Z" style="fill: rgb(13, 110, 253);"/><path d="M521.9808749117676,457.55287861335614 C525.4351374247489,474.00000000000017 525.4351374247489,474.00000000000017 560.3097780704647,474.00000000000017 C595.1844187161805,474.00000000000017 595.1844187161805,474.00000000000017 588.0990738585463,448.7683119899647 C581.0137290009121,423.5366239799292 581.0137290009121,423.5366239799292 568.991574833127,420.7734115067393 C556.9694206653418,418.01019903354944 556.9694206653418,418.01019903354944 537.748016532064,429.5579781301308 C518.5266123987863,441.10575722671217 518.5266123987863,441.10575722671217 521.9808749117676,457.55287861335614 Z" style="fill: rgb(34, 62, 98);"/><path d="M854.8440157839058,446.8882215319534 C859.793199308894,473.9999999999995 859.793199308894,473.9999999999995 886.896599654447,473.9999999999995 C913.9999999999999,473.9999999999995 913.9999999999999,473.9999999999995 913.9999999999998,448.0554205141228 C913.9999999999997,422.11084102824606 913.9999999999997,422.11084102824606 891.7000411717988,414.7900242313547 C869.400082343598,407.4692074344634 869.400082343598,407.4692074344634 859.6474573012578,413.6228252491853 C849.8948322589175,419.77644306390727 849.8948322589175,419.77644306390727 854.8440157839058,446.8882215319534 Z" style="fill: rgb(34, 62, 98);"/><path d="M509.90178234375344,458.4228235914978 C506.6302276892299,442.8456471829953 506.6302276892299,442.8456471829953 487.6822740775672,436.9631786355996 C468.7343204659044,431.0807100882039 468.7343204659044,431.0807100882039 460.0961471227274,452.54035504410206 C451.45797377955046,474.00000000000017 451.45797377955046,474.00000000000017 482.3156553889137,474.0000000000002 C513.1733369982769,474.0000000000002 513.1733369982769,474.0000000000002 509.90178234375344,458.4228235914978 Z" style="fill: rgb(13, 110, 253);"/><path d="M265.3429666980875,440.5773418351739 C253.143314636189,407.15468367034777 253.143314636189,407.15468367034777 224.50313515252788,401.4777056172293 C195.86295566886673,395.8007275641108 195.86295566886673,395.8007275641108 174.21283773709214,434.90036378205536 C152.56271980531756,474 152.56271980531756,474 215.05266928265178,474 C277.542618759986,474 277.542618759986,474 265.3429666980875,440.5773418351739 Z" style="fill: rgb(34, 62, 98);"/><path d="M783.9445282515692,455.8684765970887 C784.7594482275646,473.9999999999996 784.7594482275646,473.9999999999996 816.1771724041118,473.99999999999966 C847.5948965806592,473.99999999999966 847.5948965806592,473.99999999999966 842.8886703935204,448.2191492471418 C838.1824442063815,422.4382984942839 838.1824442063815,422.4382984942839 817.2329897941155,420.5797718156018 C796.2835353818494,418.7212451369197 796.2835353818494,418.7212451369197 789.7065718287117,428.22909916554875 C783.1296082755739,437.7369531941778 783.1296082755739,437.7369531941778 783.9445282515692,455.8684765970887 Z" style="fill: rgb(13, 110, 253);"/><path d="M772.0535401303157,458.5634647359062 C771.3597461965503,443.1269294718121 771.3597461965503,443.1269294718121 733.6265262413151,450.0346756348373 C695.8933062860798,456.94242179786244 695.8933062860798,456.94242179786244 692.2833333059302,465.4712108989315 C688.6733603257808,474.0000000000005 688.6733603257808,474.0000000000005 730.7103471949309,474.00000000000045 C772.7473340640811,474.00000000000034 772.7473340640811,474.00000000000034 772.0535401303157,458.5634647359062 Z" style="fill: rgb(34, 62, 98);"/></g></svg>