<svg width="720" height="818" xmlns="http://www.w3.org/2000/svg" xmlns:xlink="http://www.w3.org/1999/xlink" overflow="hidden"><defs><clipPath id="clip0"><rect x="816" y="1311" width="720" height="818"/></clipPath></defs><g clip-path="url(#clip0)" transform="translate(-816 -1311)"><path d="M1214 1473.5C1214 1385.41 1285.41 1314 1373.5 1314 1461.59 1314 1533 1385.41 1533 1473.5 1533 1561.59 1461.59 1633 1373.5 1633 1285.41 1633 1214 1561.59 1214 1473.5Z" stroke="#000000" stroke-width="5.72917" stroke-miterlimit="8" fill="#FFFFFF" fill-rule="evenodd"/><path d="M821.5 1799C821.5 1619.78 966.784 1474.5 1146 1474.5 1325.22 1474.5 1470.5 1619.78 1470.5 1799 1470.5 1978.22 1325.22 2123.5 1146 2123.5 966.784 2123.5 821.5 1978.22 821.5 1799Z" stroke="#000000" stroke-width="11.4583" stroke-miterlimit="8" fill="#DCEAF7" fill-rule="evenodd"/><path d="M1439.12 1793.11C1433.31 1786.65 1295.28 1635 1145.5 1635 995.718 1635 857.689 1786.65 851.885 1793.11 849.372 1795.91 849.372 1800.09 851.885 1802.89 857.689 1809.35 995.718 1961 1145.5 1961 1295.28 1961 1433.31 1809.35 1439.12 1802.89 1441.63 1800.09 1441.63 1795.91 1439.12 1793.11ZM1001.54 1798C1001.54 1720.25 1065.99 1657.23 1145.5 1657.23 1225.01 1657.23 1289.46 1720.25 1289.46 1798 1289.46 1875.75 1225.01 1938.77 1145.5 1938.77 1066.03 1938.69 1001.63 1875.71 1001.54 1798ZM867.872 1798C887.572 1777.55 967.714 1698.59 1063 1665.04 1063.37 1664.91 1063.4 1664.97 1063.06 1665.17 988.04 1709.44 963.927 1804.81 1009.2 1878.17 1022.52 1899.74 1041 1917.81 1063.06 1930.83 1063.4 1931.03 1063.37 1931.09 1063 1930.96 967.714 1897.41 887.542 1818.45 867.872 1798ZM1228 1930.96C1227.63 1931.09 1227.6 1931.03 1227.94 1930.83 1302.96 1886.56 1327.07 1791.19 1281.8 1717.83 1268.48 1696.26 1250 1678.19 1227.94 1665.17 1227.6 1664.97 1227.63 1664.91 1228 1665.04 1323.29 1698.59 1403.46 1777.55 1423.13 1798 1403.46 1818.45 1323.29 1897.41 1228 1930.96Z" fill-rule="evenodd"/><path d="M1145.5 1732C1107.67 1732 1077 1761.77 1077 1798.5 1077 1835.23 1107.67 1865 1145.5 1865 1183.33 1865 1214 1835.23 1214 1798.5 1213.95 1761.79 1183.31 1732.05 1145.5 1732ZM1145.5 1850.22C1116.08 1850.22 1092.22 1827.07 1092.22 1798.5 1092.22 1769.93 1116.08 1746.78 1145.5 1746.78 1174.92 1746.78 1198.78 1769.93 1198.78 1798.5 1198.74 1827.05 1174.91 1850.19 1145.5 1850.22Z" fill-rule="evenodd"/><path d="M1373.5 1314C1285.41 1314 1214 1385.41 1214 1473.5 1214 1561.59 1285.41 1633 1373.5 1633 1461.59 1633 1533 1561.59 1533 1473.5 1533.04 1385.45 1461.69 1314.04 1373.64 1314 1373.6 1314 1373.55 1314 1373.5 1314ZM1373.5 1624.6C1290.05 1624.6 1222.4 1556.95 1222.4 1473.5 1222.4 1390.05 1290.05 1322.4 1373.5 1322.4 1456.95 1322.4 1524.6 1390.05 1524.6 1473.5 1524.51 1556.91 1456.91 1624.51 1373.5 1624.6Z" fill-rule="evenodd"/><path d="M1377.69 1419 1344.19 1419 1344.19 1427.41 1369.31 1427.41 1369.31 1553.59 1340 1553.59 1340 1562 1407 1562 1407 1553.59 1377.69 1553.59 1377.69 1419Z" fill-rule="evenodd"/><path d="M1378 1383.5C1378 1388.75 1373.75 1393 1368.5 1393 1363.25 1393 1359 1388.75 1359 1383.5 1359 1378.25 1363.25 1374 1368.5 1374 1373.75 1374 1378 1378.25 1378 1383.5Z" fill-rule="evenodd"/></g></svg>